M48
;Layer_Color=9474304
;FILE_FORMAT=2:5
INCH,LZ
;TYPE=PLATED
T1F00S00C0.01300
T3F00S00C0.03937
T4F00S00C0.04000
;TYPE=NON_PLATED
T5F00S00C0.07874
%
T01
X0253543Y0385039
X0262992Y0384646
X0262205Y0390551
X0267717Y0373622
X0280315Y0366929
X0281102Y0380315
X0291339Y0386221
X0287008Y0396063
X0294488Y0397244
X0299614Y0401653
X0306693Y0396063
X0309055Y0405905
X0292913Y0419291
X0315354Y0417717
X0312598Y0414961
X0327953Y0415748
X0332677Y0423622
X0340945Y0414961
X0346063Y0412992
Y0408661
X0335433Y040876
X0337008Y0399606
X0335539Y0389339
Y0385992
X0338886
X0342232
Y0382646
X0338886
X0335539
X0338886Y0389339
X0342232
X034685Y0393701
X0350787Y0394882
X0359842Y0398031
X0365354Y0399213
X0373228Y0400787
Y0386614
X0362205Y0388976
Y0381102
X0359055Y0374016
X035315Y0376772
X0350787Y0375197
X0337303Y0370866
X0323228Y0399213
X0321654Y0431496
X0356299Y0403543
X0364961Y0411024
T03
X0300984Y036752
X0297638Y0380315
X0300984Y039311
X0318701
X0322047Y0380315
X0318701Y036752
T04
X0302Y043
X0312
X0343819Y0367717
X0353819
T05
X0255906Y0372835
X0385827
X0346457Y0426772
M30
