%FSLAX25Y25*%
%MOIN*%
G70*
G01*
G75*
G04 Layer_Color=8421504*
%ADD10C,0.01000*%
%ADD11C,0.02200*%
%ADD12C,0.01100*%
%ADD13R,0.02205X0.02677*%
%ADD14R,0.11811X0.15748*%
%ADD15R,0.01181X0.01575*%
%ADD16R,0.01575X0.01772*%
%ADD17R,0.01772X0.01575*%
%ADD18R,0.02362X0.01969*%
%ADD19R,0.01969X0.02362*%
%ADD20R,0.05315X0.05906*%
%ADD21R,0.01969X0.03937*%
%ADD22R,0.03100X0.03100*%
%ADD23R,0.03150X0.01181*%
%ADD24R,0.01181X0.03150*%
%ADD25O,0.01181X0.03150*%
%ADD26R,0.12598X0.12598*%
%ADD27R,0.12598X0.12598*%
%ADD28O,0.03150X0.01181*%
%ADD29R,0.02559X0.03740*%
G04:AMPARAMS|DCode=30|XSize=37.4mil|YSize=25.59mil|CornerRadius=0mil|HoleSize=0mil|Usage=FLASHONLY|Rotation=315.000|XOffset=0mil|YOffset=0mil|HoleType=Round|Shape=Rectangle|*
%AMROTATEDRECTD30*
4,1,4,-0.02227,0.00418,-0.00418,0.02227,0.02227,-0.00418,0.00418,-0.02227,-0.02227,0.00418,0.0*
%
%ADD30ROTATEDRECTD30*%

G04:AMPARAMS|DCode=31|XSize=37.4mil|YSize=25.59mil|CornerRadius=0mil|HoleSize=0mil|Usage=FLASHONLY|Rotation=225.000|XOffset=0mil|YOffset=0mil|HoleType=Round|Shape=Rectangle|*
%AMROTATEDRECTD31*
4,1,4,0.00418,0.02227,0.02227,0.00418,-0.00418,-0.02227,-0.02227,-0.00418,0.00418,0.02227,0.0*
%
%ADD31ROTATEDRECTD31*%

%ADD32R,0.03543X0.03150*%
%ADD33R,0.06299X0.05118*%
%ADD34R,0.01181X0.03543*%
%ADD35R,0.03150X0.06299*%
%ADD36R,0.03150X0.02559*%
%ADD37R,0.03937X0.04724*%
%ADD38R,0.02756X0.03150*%
%ADD39R,0.02362X0.03347*%
%ADD40C,0.03000*%
%ADD41C,0.00800*%
%ADD42C,0.02000*%
G04:AMPARAMS|DCode=43|XSize=35.43mil|YSize=78.74mil|CornerRadius=0mil|HoleSize=0mil|Usage=FLASHONLY|Rotation=45.000|XOffset=0mil|YOffset=0mil|HoleType=Round|Shape=Round|*
%AMOVALD43*
21,1,0.04331,0.03543,0.00000,0.00000,135.0*
1,1,0.03543,0.01531,-0.01531*
1,1,0.03543,-0.01531,0.01531*
%
%ADD43OVALD43*%

G04:AMPARAMS|DCode=44|XSize=47.24mil|YSize=23.62mil|CornerRadius=0mil|HoleSize=0mil|Usage=FLASHONLY|Rotation=45.000|XOffset=0mil|YOffset=0mil|HoleType=Round|Shape=Round|*
%AMOVALD44*
21,1,0.02362,0.02362,0.00000,0.00000,45.0*
1,1,0.02362,-0.00835,-0.00835*
1,1,0.02362,0.00835,0.00835*
%
%ADD44OVALD44*%

G04:AMPARAMS|DCode=45|XSize=47.24mil|YSize=23.62mil|CornerRadius=0mil|HoleSize=0mil|Usage=FLASHONLY|Rotation=315.000|XOffset=0mil|YOffset=0mil|HoleType=Round|Shape=Round|*
%AMOVALD45*
21,1,0.02362,0.02362,0.00000,0.00000,315.0*
1,1,0.02362,-0.00835,0.00835*
1,1,0.02362,0.00835,-0.00835*
%
%ADD45OVALD45*%

G04:AMPARAMS|DCode=46|XSize=35.43mil|YSize=78.74mil|CornerRadius=0mil|HoleSize=0mil|Usage=FLASHONLY|Rotation=315.000|XOffset=0mil|YOffset=0mil|HoleType=Round|Shape=Round|*
%AMOVALD46*
21,1,0.04331,0.03543,0.00000,0.00000,45.0*
1,1,0.03543,-0.01531,-0.01531*
1,1,0.03543,0.01531,0.01531*
%
%ADD46OVALD46*%

%ADD47O,0.02756X0.02953*%
%ADD48C,0.02953*%
%ADD49C,0.02700*%
D13*
X134252Y361024D02*
D03*
X141339D02*
D03*
X338189D02*
D03*
X331102D02*
D03*
D14*
X251969Y205118D02*
D03*
X220472D02*
D03*
D15*
X218898Y215354D02*
D03*
X214961D02*
D03*
D16*
X209055Y276575D02*
D03*
Y273819D02*
D03*
X238583Y250197D02*
D03*
Y252953D02*
D03*
X237795Y281693D02*
D03*
Y278937D02*
D03*
X209055Y264370D02*
D03*
Y267126D02*
D03*
X201575Y223819D02*
D03*
Y221063D02*
D03*
X219291Y290748D02*
D03*
Y287992D02*
D03*
X234252D02*
D03*
Y290748D02*
D03*
X261811Y229724D02*
D03*
Y226969D02*
D03*
X220079Y249016D02*
D03*
Y246260D02*
D03*
X318898Y343110D02*
D03*
Y345866D02*
D03*
X153543Y343110D02*
D03*
Y345866D02*
D03*
X204331Y281299D02*
D03*
Y284055D02*
D03*
X272441Y223425D02*
D03*
Y220669D02*
D03*
X201575Y230118D02*
D03*
Y227362D02*
D03*
X228740Y242717D02*
D03*
Y245472D02*
D03*
D17*
X246654Y277953D02*
D03*
X243898D02*
D03*
X239961Y258268D02*
D03*
X242717D02*
D03*
X223425Y250787D02*
D03*
X226181D02*
D03*
X223425Y253937D02*
D03*
X226181D02*
D03*
X207283Y200394D02*
D03*
X204528D02*
D03*
X268701Y200000D02*
D03*
X271457D02*
D03*
X262008D02*
D03*
X264764D02*
D03*
X258071Y247638D02*
D03*
X255315D02*
D03*
X248228Y224016D02*
D03*
X250984D02*
D03*
X276634Y290265D02*
D03*
X273879D02*
D03*
X195866Y205512D02*
D03*
X198622D02*
D03*
X211614Y260630D02*
D03*
X208858D02*
D03*
X244291Y247244D02*
D03*
X241535D02*
D03*
D18*
X234646Y249213D02*
D03*
Y253150D02*
D03*
D19*
X249213Y274016D02*
D03*
X245276D02*
D03*
X235827Y257087D02*
D03*
X231890D02*
D03*
D20*
X262697Y264961D02*
D03*
X271161D02*
D03*
D21*
X237992Y262598D02*
D03*
X242323D02*
D03*
D22*
X248031Y268454D02*
D03*
Y262254D02*
D03*
D23*
X205315Y225394D02*
D03*
Y227362D02*
D03*
Y229331D02*
D03*
Y231299D02*
D03*
Y233268D02*
D03*
Y235236D02*
D03*
Y237205D02*
D03*
Y239173D02*
D03*
X225000D02*
D03*
Y237205D02*
D03*
Y235236D02*
D03*
Y233268D02*
D03*
Y231299D02*
D03*
Y229331D02*
D03*
Y227362D02*
D03*
Y225394D02*
D03*
X233858Y266535D02*
D03*
Y268504D02*
D03*
Y270472D02*
D03*
Y272441D02*
D03*
Y274409D02*
D03*
Y276378D02*
D03*
Y278346D02*
D03*
X214173D02*
D03*
Y276378D02*
D03*
Y274409D02*
D03*
Y272441D02*
D03*
Y270472D02*
D03*
Y268504D02*
D03*
Y266535D02*
D03*
Y264567D02*
D03*
X241339Y238779D02*
D03*
Y236811D02*
D03*
Y234842D02*
D03*
Y232874D02*
D03*
Y230906D02*
D03*
X257087D02*
D03*
Y232874D02*
D03*
Y234842D02*
D03*
Y236811D02*
D03*
Y238779D02*
D03*
Y240748D02*
D03*
D24*
X208268Y242126D02*
D03*
X210236D02*
D03*
X212205D02*
D03*
X214173D02*
D03*
X216142D02*
D03*
X218110D02*
D03*
X220079D02*
D03*
X222047D02*
D03*
Y222441D02*
D03*
X220079D02*
D03*
X218110D02*
D03*
X216142D02*
D03*
X214173D02*
D03*
X212205D02*
D03*
X210236D02*
D03*
X230906Y281299D02*
D03*
X228937D02*
D03*
X226969D02*
D03*
X225000D02*
D03*
X223031D02*
D03*
X221063D02*
D03*
X219094D02*
D03*
X217126D02*
D03*
Y261614D02*
D03*
X219094D02*
D03*
X221063D02*
D03*
X223031D02*
D03*
X225000D02*
D03*
X226969D02*
D03*
X228937D02*
D03*
X230906D02*
D03*
X244291Y227953D02*
D03*
X246260D02*
D03*
X248228D02*
D03*
X250197D02*
D03*
X252165D02*
D03*
X254134D02*
D03*
Y243701D02*
D03*
X252165D02*
D03*
X250197D02*
D03*
X248228D02*
D03*
X246260D02*
D03*
X244291D02*
D03*
D25*
X208268Y222441D02*
D03*
D26*
X215158Y232283D02*
D03*
D27*
X224016Y271457D02*
D03*
D28*
X233858Y264567D02*
D03*
X241339Y240748D02*
D03*
D29*
X206102Y214173D02*
D03*
X209842Y205118D02*
D03*
X202362D02*
D03*
X262992Y205512D02*
D03*
X270472D02*
D03*
X266732Y214567D02*
D03*
D30*
X285039Y202362D02*
D03*
X279750Y197073D02*
D03*
X288798Y193315D02*
D03*
X183643Y298811D02*
D03*
X192691Y295053D02*
D03*
X187402Y289764D02*
D03*
D31*
X183472Y193092D02*
D03*
X187230Y202140D02*
D03*
X192520Y196850D02*
D03*
X279921Y295276D02*
D03*
X285211Y289986D02*
D03*
X288969Y299034D02*
D03*
D32*
X229528Y287205D02*
D03*
Y291535D02*
D03*
X224016Y287205D02*
D03*
Y291535D02*
D03*
D33*
X202559Y268504D02*
D03*
D34*
X199606Y262598D02*
D03*
X201575D02*
D03*
X203543D02*
D03*
X205512D02*
D03*
X199606Y274410D02*
D03*
X201575D02*
D03*
X203543D02*
D03*
X205512D02*
D03*
D35*
X263386Y290551D02*
D03*
D36*
X250787Y288681D02*
D03*
Y292421D02*
D03*
D37*
X271063Y257087D02*
D03*
X264370D02*
D03*
X271063Y235039D02*
D03*
X264370D02*
D03*
D38*
X247835Y198917D02*
D03*
X224606D02*
D03*
D39*
X243307Y213779D02*
D03*
X238583D02*
D03*
X229134D02*
D03*
X233858D02*
D03*
M02*
