%FSLAX25Y25*%
%MOIN*%
G70*
G01*
G75*
G04 Layer_Color=16711935*
%ADD10C,0.01000*%
%ADD11C,0.02200*%
%ADD12C,0.01100*%
%ADD13R,0.02205X0.02677*%
%ADD14R,0.11811X0.15748*%
%ADD15R,0.01181X0.01575*%
%ADD16R,0.01575X0.01772*%
%ADD17R,0.01772X0.01575*%
%ADD18R,0.02362X0.01969*%
%ADD19R,0.01969X0.02362*%
%ADD20R,0.05315X0.05906*%
%ADD21R,0.01969X0.03937*%
%ADD22R,0.03100X0.03100*%
%ADD23R,0.03150X0.01181*%
%ADD24R,0.01181X0.03150*%
%ADD25O,0.01181X0.03150*%
%ADD26R,0.12598X0.12598*%
%ADD27R,0.12598X0.12598*%
%ADD28O,0.03150X0.01181*%
%ADD29R,0.02559X0.03740*%
G04:AMPARAMS|DCode=30|XSize=37.4mil|YSize=25.59mil|CornerRadius=0mil|HoleSize=0mil|Usage=FLASHONLY|Rotation=315.000|XOffset=0mil|YOffset=0mil|HoleType=Round|Shape=Rectangle|*
%AMROTATEDRECTD30*
4,1,4,-0.02227,0.00418,-0.00418,0.02227,0.02227,-0.00418,0.00418,-0.02227,-0.02227,0.00418,0.0*
%
%ADD30ROTATEDRECTD30*%

G04:AMPARAMS|DCode=31|XSize=37.4mil|YSize=25.59mil|CornerRadius=0mil|HoleSize=0mil|Usage=FLASHONLY|Rotation=225.000|XOffset=0mil|YOffset=0mil|HoleType=Round|Shape=Rectangle|*
%AMROTATEDRECTD31*
4,1,4,0.00418,0.02227,0.02227,0.00418,-0.00418,-0.02227,-0.02227,-0.00418,0.00418,0.02227,0.0*
%
%ADD31ROTATEDRECTD31*%

%ADD32R,0.03543X0.03150*%
%ADD33R,0.06299X0.05118*%
%ADD34R,0.01181X0.03543*%
%ADD35R,0.03150X0.06299*%
%ADD36R,0.03150X0.02559*%
%ADD37R,0.03937X0.04724*%
%ADD38R,0.02756X0.03150*%
%ADD39R,0.02362X0.03347*%
%ADD40C,0.03000*%
%ADD41C,0.00800*%
%ADD42C,0.02000*%
G04:AMPARAMS|DCode=43|XSize=35.43mil|YSize=78.74mil|CornerRadius=0mil|HoleSize=0mil|Usage=FLASHONLY|Rotation=45.000|XOffset=0mil|YOffset=0mil|HoleType=Round|Shape=Round|*
%AMOVALD43*
21,1,0.04331,0.03543,0.00000,0.00000,135.0*
1,1,0.03543,0.01531,-0.01531*
1,1,0.03543,-0.01531,0.01531*
%
%ADD43OVALD43*%

G04:AMPARAMS|DCode=44|XSize=47.24mil|YSize=23.62mil|CornerRadius=0mil|HoleSize=0mil|Usage=FLASHONLY|Rotation=45.000|XOffset=0mil|YOffset=0mil|HoleType=Round|Shape=Round|*
%AMOVALD44*
21,1,0.02362,0.02362,0.00000,0.00000,45.0*
1,1,0.02362,-0.00835,-0.00835*
1,1,0.02362,0.00835,0.00835*
%
%ADD44OVALD44*%

G04:AMPARAMS|DCode=45|XSize=47.24mil|YSize=23.62mil|CornerRadius=0mil|HoleSize=0mil|Usage=FLASHONLY|Rotation=315.000|XOffset=0mil|YOffset=0mil|HoleType=Round|Shape=Round|*
%AMOVALD45*
21,1,0.02362,0.02362,0.00000,0.00000,315.0*
1,1,0.02362,-0.00835,0.00835*
1,1,0.02362,0.00835,-0.00835*
%
%ADD45OVALD45*%

G04:AMPARAMS|DCode=46|XSize=35.43mil|YSize=78.74mil|CornerRadius=0mil|HoleSize=0mil|Usage=FLASHONLY|Rotation=315.000|XOffset=0mil|YOffset=0mil|HoleType=Round|Shape=Round|*
%AMOVALD46*
21,1,0.04331,0.03543,0.00000,0.00000,45.0*
1,1,0.03543,-0.01531,-0.01531*
1,1,0.03543,0.01531,0.01531*
%
%ADD46OVALD46*%

%ADD47O,0.02756X0.02953*%
%ADD48C,0.02953*%
%ADD49C,0.02700*%
%ADD50R,0.03005X0.03477*%
%ADD51R,0.12611X0.16548*%
%ADD52R,0.01981X0.02375*%
%ADD53R,0.02375X0.02572*%
%ADD54R,0.02572X0.02375*%
%ADD55R,0.03162X0.02769*%
%ADD56R,0.02769X0.03162*%
%ADD57R,0.06115X0.06706*%
%ADD58R,0.02769X0.04737*%
%ADD59R,0.03900X0.03900*%
%ADD60R,0.03950X0.01981*%
%ADD61R,0.01981X0.03950*%
%ADD62O,0.01981X0.03950*%
%ADD63R,0.13398X0.13398*%
%ADD64R,0.13398X0.13398*%
%ADD65O,0.03950X0.01981*%
%ADD66R,0.03359X0.04540*%
G04:AMPARAMS|DCode=67|XSize=45.4mil|YSize=33.59mil|CornerRadius=0mil|HoleSize=0mil|Usage=FLASHONLY|Rotation=315.000|XOffset=0mil|YOffset=0mil|HoleType=Round|Shape=Rectangle|*
%AMROTATEDRECTD67*
4,1,4,-0.02793,0.00418,-0.00418,0.02793,0.02793,-0.00418,0.00418,-0.02793,-0.02793,0.00418,0.0*
%
%ADD67ROTATEDRECTD67*%

G04:AMPARAMS|DCode=68|XSize=45.4mil|YSize=33.59mil|CornerRadius=0mil|HoleSize=0mil|Usage=FLASHONLY|Rotation=225.000|XOffset=0mil|YOffset=0mil|HoleType=Round|Shape=Rectangle|*
%AMROTATEDRECTD68*
4,1,4,0.00418,0.02793,0.02793,0.00418,-0.00418,-0.02793,-0.02793,-0.00418,0.00418,0.02793,0.0*
%
%ADD68ROTATEDRECTD68*%

%ADD69R,0.04343X0.03950*%
%ADD70R,0.07099X0.05918*%
%ADD71R,0.01981X0.04343*%
%ADD72R,0.03950X0.07099*%
%ADD73R,0.03950X0.03359*%
%ADD74R,0.04737X0.05524*%
%ADD75R,0.03556X0.03950*%
%ADD76R,0.03162X0.04147*%
G04:AMPARAMS|DCode=77|XSize=43.43mil|YSize=86.74mil|CornerRadius=0mil|HoleSize=0mil|Usage=FLASHONLY|Rotation=45.000|XOffset=0mil|YOffset=0mil|HoleType=Round|Shape=Round|*
%AMOVALD77*
21,1,0.04331,0.04343,0.00000,0.00000,135.0*
1,1,0.04343,0.01531,-0.01531*
1,1,0.04343,-0.01531,0.01531*
%
%ADD77OVALD77*%

G04:AMPARAMS|DCode=78|XSize=43.43mil|YSize=86.74mil|CornerRadius=0mil|HoleSize=0mil|Usage=FLASHONLY|Rotation=315.000|XOffset=0mil|YOffset=0mil|HoleType=Round|Shape=Round|*
%AMOVALD78*
21,1,0.04331,0.04343,0.00000,0.00000,45.0*
1,1,0.04343,-0.01531,-0.01531*
1,1,0.04343,0.01531,0.01531*
%
%ADD78OVALD78*%

%ADD79O,0.03556X0.03753*%
%ADD80C,0.03753*%
%ADD81C,0.00787*%
%ADD82C,0.00400*%
%ADD83C,0.00197*%
%ADD84C,0.00600*%
D10*
X208366Y225000D02*
G03*
X208366Y225000I-492J0D01*
G01*
X231791Y264173D02*
G03*
X231791Y264173I-492J0D01*
G01*
X244390Y241142D02*
G03*
X244390Y241142I-492J0D01*
G01*
X230020Y291339D02*
G03*
X230020Y291339I-492J0D01*
G01*
X205315Y272638D02*
G03*
X205315Y272638I-492J0D01*
G01*
D81*
X274729Y261061D02*
Y268861D01*
X259129D02*
X274529D01*
X259129Y261061D02*
Y268861D01*
Y261061D02*
X274529D01*
X245532Y259744D02*
Y270965D01*
X250532Y259744D02*
Y270965D01*
X245532D02*
X250532D01*
X245532Y259744D02*
X250532D01*
X205315Y242126D02*
X225000D01*
Y222441D02*
Y242126D01*
X205315Y222441D02*
X225000D01*
X205315D02*
Y242126D01*
X214173Y261614D02*
X233858D01*
Y281299D01*
X214173D02*
X233858D01*
X214173Y261614D02*
Y281299D01*
X200000Y216831D02*
X212205D01*
Y202461D02*
Y216831D01*
X200000Y202461D02*
X212205D01*
X200000D02*
Y216831D01*
X284831Y205912D02*
X294992Y195750D01*
X276201Y197282D02*
X284831Y205912D01*
X276201Y197282D02*
X286362Y187120D01*
X294992Y195750D01*
X177278Y195528D02*
X185908Y186898D01*
X177278Y195528D02*
X187439Y205689D01*
X196069Y197059D01*
X185908Y186898D02*
X196069Y197059D01*
X276372Y295067D02*
X286533Y305228D01*
X276372Y295067D02*
X285002Y286437D01*
X295163Y296598D01*
X286533Y305228D02*
X295163Y296598D01*
X177449Y296375D02*
X186079Y305006D01*
X196240Y294844D01*
X187610Y286214D02*
X196240Y294844D01*
X177449Y296375D02*
X187610Y286214D01*
X260630Y202854D02*
Y217224D01*
Y202854D02*
X272835D01*
Y217224D01*
X260630D02*
X272835D01*
X241339Y227953D02*
Y243701D01*
Y227953D02*
X257087D01*
Y243701D01*
X241339D02*
X257087D01*
X221457Y284842D02*
X232087D01*
Y293898D01*
X221457D02*
X232087D01*
X221457Y284842D02*
Y293898D01*
X198622Y262598D02*
Y274410D01*
Y262598D02*
X206496D01*
Y274410D01*
X198622D02*
X206496D01*
X248819Y287008D02*
Y294094D01*
X265354D01*
Y287008D02*
Y294094D01*
X248819Y287008D02*
X265354D01*
X274606Y251476D02*
X278543D01*
X274606Y240650D02*
X278543D01*
X274606Y231890D02*
Y240650D01*
Y251476D02*
Y260236D01*
X278543Y240650D02*
Y251476D01*
X260827Y260236D02*
X274606D01*
X260827Y231890D02*
Y260236D01*
Y231890D02*
X274606D01*
X222736Y196850D02*
Y215945D01*
X249705D01*
Y196850D02*
Y215945D01*
X222736Y196850D02*
X249705D01*
D82*
X132972Y359449D02*
X142618D01*
Y362598D01*
X139961D02*
X142618D01*
X139961D02*
Y363976D01*
X135630D02*
X139961D01*
X135630Y362598D02*
Y363976D01*
X132972Y362598D02*
X135630D01*
X132972Y359449D02*
Y362598D01*
X329823Y359449D02*
Y362598D01*
X332480D01*
Y363976D01*
X336811D01*
Y362598D02*
Y363976D01*
Y362598D02*
X339469D01*
Y359449D02*
Y362598D01*
X329823Y359449D02*
X339469D01*
X236614Y247441D02*
Y254921D01*
X232677D02*
X236614D01*
X232677Y247441D02*
Y254921D01*
Y247441D02*
X236614D01*
X243504Y272047D02*
Y275984D01*
X250984D01*
Y272047D02*
Y275984D01*
X243504Y272047D02*
X250984D01*
X230118Y259055D02*
X237598D01*
X230118Y255118D02*
Y259055D01*
Y255118D02*
X237598D01*
Y259055D01*
X236417Y260039D02*
X243898D01*
Y265158D01*
X236417D02*
X243898D01*
X236417Y260039D02*
Y265158D01*
X136221Y362137D02*
Y360138D01*
Y361138D01*
X137553D01*
Y362137D01*
Y360138D01*
X138220D02*
X138886D01*
X138553D01*
Y362137D01*
X138220Y361804D01*
X333071Y362137D02*
Y360138D01*
Y361138D01*
X334404D01*
Y362137D01*
Y360138D01*
X336403D02*
X335070D01*
X336403Y361471D01*
Y361804D01*
X336070Y362137D01*
X335403D01*
X335070Y361804D01*
X215256Y216165D02*
Y215165D01*
X215756Y214665D01*
X216256Y215165D01*
Y216165D01*
X217755D02*
X217255Y215915D01*
X216755Y215415D01*
Y214915D01*
X217005Y214665D01*
X217505D01*
X217755Y214915D01*
Y215165D01*
X217505Y215415D01*
X216755D01*
X208593Y274228D02*
X208343Y273978D01*
Y273478D01*
X208593Y273228D01*
X209593D01*
X209842Y273478D01*
Y273978D01*
X209593Y274228D01*
X209842Y275728D02*
Y274728D01*
X208843Y275728D01*
X208593D01*
X208343Y275478D01*
Y274978D01*
X208593Y274728D01*
X209842Y276227D02*
Y276727D01*
Y276477D01*
X208343D01*
X208593Y276227D01*
X244307Y278415D02*
X244057Y278665D01*
X243557D01*
X243307Y278415D01*
Y277415D01*
X243557Y277165D01*
X244057D01*
X244307Y277415D01*
X244807Y277165D02*
X245306D01*
X245057D01*
Y278665D01*
X244807Y278415D01*
X246056Y277415D02*
X246306Y277165D01*
X246806D01*
X247056Y277415D01*
Y278415D01*
X246806Y278665D01*
X246306D01*
X246056Y278415D01*
Y278165D01*
X246306Y277915D01*
X247056D01*
X240370Y258730D02*
X240120Y258980D01*
X239620D01*
X239370Y258730D01*
Y257730D01*
X239620Y257480D01*
X240120D01*
X240370Y257730D01*
X240870Y257480D02*
X241369D01*
X241120D01*
Y258980D01*
X240870Y258730D01*
X242119Y258980D02*
X243119D01*
Y258730D01*
X242119Y257730D01*
Y257480D01*
X238121Y250606D02*
X237871Y250356D01*
Y249856D01*
X238121Y249606D01*
X239120D01*
X239370Y249856D01*
Y250356D01*
X239120Y250606D01*
X239370Y251106D02*
Y251606D01*
Y251356D01*
X237871D01*
X238121Y251106D01*
X237871Y253355D02*
Y252355D01*
X238620D01*
X238370Y252855D01*
Y253105D01*
X238620Y253355D01*
X239120D01*
X239370Y253105D01*
Y252605D01*
X239120Y252355D01*
X223834Y251250D02*
X223584Y251500D01*
X223085D01*
X222835Y251250D01*
Y250250D01*
X223085Y250000D01*
X223584D01*
X223834Y250250D01*
X224334Y250000D02*
X224834D01*
X224584D01*
Y251500D01*
X224334Y251250D01*
X226333Y250000D02*
Y251500D01*
X225584Y250750D01*
X226583D01*
X223834Y254399D02*
X223584Y254649D01*
X223085D01*
X222835Y254399D01*
Y253399D01*
X223085Y253150D01*
X223584D01*
X223834Y253399D01*
X224334Y253150D02*
X224834D01*
X224584D01*
Y254649D01*
X224334Y254399D01*
X225584D02*
X225834Y254649D01*
X226333D01*
X226583Y254399D01*
Y254149D01*
X226333Y253899D01*
X226084D01*
X226333D01*
X226583Y253649D01*
Y253399D01*
X226333Y253150D01*
X225834D01*
X225584Y253399D01*
X237333Y279346D02*
X237083Y279096D01*
Y278596D01*
X237333Y278346D01*
X238333D01*
X238583Y278596D01*
Y279096D01*
X238333Y279346D01*
X238583Y279846D02*
Y280346D01*
Y280096D01*
X237083D01*
X237333Y279846D01*
Y281096D02*
X237083Y281346D01*
Y281845D01*
X237333Y282095D01*
X238333D01*
X238583Y281845D01*
Y281346D01*
X238333Y281096D01*
X237333D01*
X208593Y264779D02*
X208343Y264529D01*
Y264029D01*
X208593Y263779D01*
X209593D01*
X209842Y264029D01*
Y264529D01*
X209593Y264779D01*
Y265279D02*
X209842Y265529D01*
Y266029D01*
X209593Y266279D01*
X208593D01*
X208343Y266029D01*
Y265529D01*
X208593Y265279D01*
X208843D01*
X209093Y265529D01*
Y266279D01*
X204937Y200856D02*
X204687Y201106D01*
X204187D01*
X203937Y200856D01*
Y199856D01*
X204187Y199606D01*
X204687D01*
X204937Y199856D01*
X205436Y200856D02*
X205686Y201106D01*
X206186D01*
X206436Y200856D01*
Y200606D01*
X206186Y200356D01*
X205936D01*
X206186D01*
X206436Y200106D01*
Y199856D01*
X206186Y199606D01*
X205686D01*
X205436Y199856D01*
X201113Y221866D02*
X200863Y221616D01*
Y221116D01*
X201113Y220866D01*
X202112D01*
X202362Y221116D01*
Y221616D01*
X202112Y221866D01*
X202362Y223115D02*
X200863D01*
X201612Y222366D01*
Y223365D01*
X218829Y288401D02*
X218579Y288151D01*
Y287651D01*
X218829Y287402D01*
X219829D01*
X220079Y287651D01*
Y288151D01*
X219829Y288401D01*
X220079Y288901D02*
Y289401D01*
Y289151D01*
X218579D01*
X218829Y288901D01*
X220079Y291150D02*
Y290151D01*
X219079Y291150D01*
X218829D01*
X218579Y290900D01*
Y290401D01*
X218829Y290151D01*
X233790Y288401D02*
X233540Y288151D01*
Y287651D01*
X233790Y287402D01*
X234789D01*
X235039Y287651D01*
Y288151D01*
X234789Y288401D01*
X235039Y288901D02*
Y289401D01*
Y289151D01*
X233540D01*
X233790Y288901D01*
X235039Y290151D02*
Y290651D01*
Y290401D01*
X233540D01*
X233790Y290151D01*
X269897Y200462D02*
X269647Y200712D01*
X269148D01*
X268898Y200462D01*
Y199462D01*
X269148Y199213D01*
X269647D01*
X269897Y199462D01*
X271397Y199213D02*
X270397D01*
X271397Y200212D01*
Y200462D01*
X271147Y200712D01*
X270647D01*
X270397Y200462D01*
X262417Y200462D02*
X262167Y200712D01*
X261667D01*
X261417Y200462D01*
Y199462D01*
X261667Y199213D01*
X262167D01*
X262417Y199462D01*
X262917Y199213D02*
X263417D01*
X263167D01*
Y200712D01*
X262917Y200462D01*
X255724Y248100D02*
X255474Y248350D01*
X254974D01*
X254724Y248100D01*
Y247100D01*
X254974Y246850D01*
X255474D01*
X255724Y247100D01*
X256224Y248100D02*
X256474Y248350D01*
X256974D01*
X257224Y248100D01*
Y247850D01*
X256974Y247600D01*
X257224Y247350D01*
Y247100D01*
X256974Y246850D01*
X256474D01*
X256224Y247100D01*
Y247350D01*
X256474Y247600D01*
X256224Y247850D01*
Y248100D01*
X256474Y247600D02*
X256974D01*
X248638Y224478D02*
X248388Y224728D01*
X247888D01*
X247638Y224478D01*
Y223478D01*
X247888Y223228D01*
X248388D01*
X248638Y223478D01*
X249137Y224728D02*
X250137D01*
Y224478D01*
X249137Y223478D01*
Y223228D01*
X261349Y227378D02*
X261099Y227128D01*
Y226628D01*
X261349Y226378D01*
X262349D01*
X262598Y226628D01*
Y227128D01*
X262349Y227378D01*
X261099Y228877D02*
X261349Y228377D01*
X261849Y227877D01*
X262349D01*
X262598Y228127D01*
Y228627D01*
X262349Y228877D01*
X262099D01*
X261849Y228627D01*
Y227877D01*
X219617Y247063D02*
X219367Y246813D01*
Y246313D01*
X219617Y246063D01*
X220616D01*
X220866Y246313D01*
Y246813D01*
X220616Y247063D01*
X219367Y248562D02*
Y247563D01*
X220116D01*
X219866Y248062D01*
Y248312D01*
X220116Y248562D01*
X220616D01*
X220866Y248312D01*
Y247812D01*
X220616Y247563D01*
X319685Y342913D02*
X318185D01*
Y343663D01*
X318435Y343913D01*
X318935D01*
X319185Y343663D01*
Y342913D01*
Y343413D02*
X319685Y343913D01*
X318185Y345413D02*
X318435Y344913D01*
X318935Y344413D01*
X319435D01*
X319685Y344663D01*
Y345163D01*
X319435Y345413D01*
X319185D01*
X318935Y345163D01*
Y344413D01*
X154331Y342520D02*
X152831D01*
Y343269D01*
X153081Y343519D01*
X153581D01*
X153831Y343269D01*
Y342520D01*
Y343020D02*
X154331Y343519D01*
X152831Y345019D02*
Y344019D01*
X153581D01*
X153331Y344519D01*
Y344769D01*
X153581Y345019D01*
X154081D01*
X154331Y344769D01*
Y344269D01*
X154081Y344019D01*
X205118Y281496D02*
X203619D01*
Y282246D01*
X203869Y282496D01*
X204368D01*
X204618Y282246D01*
Y281496D01*
Y281996D02*
X205118Y282496D01*
Y282996D02*
Y283495D01*
Y283245D01*
X203619D01*
X203869Y282996D01*
X274016Y289370D02*
Y290870D01*
X274765D01*
X275015Y290620D01*
Y290120D01*
X274765Y289870D01*
X274016D01*
X274516D02*
X275015Y289370D01*
X276515D02*
X275515D01*
X276515Y290370D01*
Y290620D01*
X276265Y290870D01*
X275765D01*
X275515Y290620D01*
X196063Y204724D02*
Y206224D01*
X196813D01*
X197063Y205974D01*
Y205474D01*
X196813Y205224D01*
X196063D01*
X196563D02*
X197063Y204724D01*
X197563Y205974D02*
X197812Y206224D01*
X198312D01*
X198562Y205974D01*
Y205724D01*
X198312Y205474D01*
X198062D01*
X198312D01*
X198562Y205224D01*
Y204974D01*
X198312Y204724D01*
X197812D01*
X197563Y204974D01*
X273228Y220866D02*
X271729D01*
Y221616D01*
X271979Y221866D01*
X272479D01*
X272728Y221616D01*
Y220866D01*
Y221366D02*
X273228Y221866D01*
Y223115D02*
X271729D01*
X272479Y222366D01*
Y223365D01*
X234184Y250212D02*
X233934Y249962D01*
Y249463D01*
X234184Y249213D01*
X235183D01*
X235433Y249463D01*
Y249962D01*
X235183Y250212D01*
X235433Y250712D02*
Y251212D01*
Y250962D01*
X233934D01*
X234184Y250712D01*
X233934Y252961D02*
X234184Y252462D01*
X234683Y251962D01*
X235183D01*
X235433Y252212D01*
Y252712D01*
X235183Y252961D01*
X234933D01*
X234683Y252712D01*
Y251962D01*
X246275Y274478D02*
X246025Y274728D01*
X245526D01*
X245276Y274478D01*
Y273478D01*
X245526Y273228D01*
X246025D01*
X246275Y273478D01*
X247775Y273228D02*
X246775D01*
X247775Y274228D01*
Y274478D01*
X247525Y274728D01*
X247025D01*
X246775Y274478D01*
X248275D02*
X248525Y274728D01*
X249024D01*
X249274Y274478D01*
Y273478D01*
X249024Y273228D01*
X248525D01*
X248275Y273478D01*
Y274478D01*
X232889Y257799D02*
X231890D01*
Y257049D01*
X232390D01*
X231890D01*
Y256299D01*
X233389Y257799D02*
Y256299D01*
X234139D01*
X234389Y256549D01*
Y256799D01*
X234139Y257049D01*
X233389D01*
X234139D01*
X234389Y257299D01*
Y257549D01*
X234139Y257799D01*
X233389D01*
X234889Y256299D02*
X235389D01*
X235139D01*
Y257799D01*
X234889Y257549D01*
X238583Y263311D02*
X239582Y261811D01*
Y263311D02*
X238583Y261811D01*
X240082Y263061D02*
X240332Y263311D01*
X240832D01*
X241082Y263061D01*
Y262811D01*
X240832Y262561D01*
X240582D01*
X240832D01*
X241082Y262311D01*
Y262061D01*
X240832Y261811D01*
X240332D01*
X240082Y262061D01*
X247319Y264567D02*
X248819D01*
Y265567D01*
Y266066D02*
Y266566D01*
Y266316D01*
X247319D01*
X247569Y266066D01*
X208268Y259842D02*
Y261342D01*
X209017D01*
X209267Y261092D01*
Y260592D01*
X209017Y260342D01*
X208268D01*
X208768D02*
X209267Y259842D01*
X209767Y261342D02*
X210767D01*
Y261092D01*
X209767Y260092D01*
Y259842D01*
X202362Y226772D02*
X200863D01*
Y227521D01*
X201113Y227771D01*
X201612D01*
X201862Y227521D01*
Y226772D01*
Y227272D02*
X202362Y227771D01*
X201113Y228271D02*
X200863Y228521D01*
Y229021D01*
X201113Y229271D01*
X201362D01*
X201612Y229021D01*
X201862Y229271D01*
X202112D01*
X202362Y229021D01*
Y228521D01*
X202112Y228271D01*
X201862D01*
X201612Y228521D01*
X201362Y228271D01*
X201113D01*
X201612Y228521D02*
Y229021D01*
X227953Y246063D02*
X229452D01*
Y245313D01*
X229202Y245063D01*
X228702D01*
X228453Y245313D01*
Y246063D01*
Y245563D02*
X227953Y245063D01*
X228203Y244564D02*
X227953Y244314D01*
Y243814D01*
X228203Y243564D01*
X229202D01*
X229452Y243814D01*
Y244314D01*
X229202Y244564D01*
X228952D01*
X228702Y244314D01*
Y243564D01*
X240945Y246457D02*
Y247956D01*
X241695D01*
X241945Y247706D01*
Y247206D01*
X241695Y246956D01*
X240945D01*
X241445D02*
X241945Y246457D01*
X242444D02*
X242944D01*
X242694D01*
Y247956D01*
X242444Y247706D01*
X243694D02*
X243944Y247956D01*
X244444D01*
X244694Y247706D01*
Y246707D01*
X244444Y246457D01*
X243944D01*
X243694Y246707D01*
Y247706D01*
D83*
X214370Y213878D02*
Y216831D01*
X213681Y213878D02*
Y216831D01*
Y213878D02*
X220177D01*
Y216831D01*
X213681D02*
X220177D01*
X207579Y272244D02*
X210531D01*
X207579D02*
Y278150D01*
X210531D01*
Y272244D02*
Y278150D01*
X242323Y279429D02*
X248228D01*
X242323Y276476D02*
Y279429D01*
Y276476D02*
X248228D01*
Y279429D01*
X244291Y256791D02*
Y259744D01*
X238386Y256791D02*
X244291D01*
X238386D02*
Y259744D01*
X244291D01*
X240059Y248622D02*
Y254528D01*
X237106D02*
X240059D01*
X237106Y248622D02*
Y254528D01*
Y248622D02*
X240059D01*
X227756Y249311D02*
Y252264D01*
X221850Y249311D02*
X227756D01*
X221850D02*
Y252264D01*
X227756D01*
X221850Y252461D02*
X227756D01*
Y255413D01*
X221850D02*
X227756D01*
X221850Y252461D02*
Y255413D01*
X236319Y277362D02*
X239272D01*
X236319D02*
Y283268D01*
X239272D01*
Y277362D02*
Y283268D01*
X210531Y262795D02*
Y268701D01*
X207579D02*
X210531D01*
X207579Y262795D02*
Y268701D01*
Y262795D02*
X210531D01*
X202953Y198917D02*
Y201870D01*
X208858D01*
Y198917D02*
Y201870D01*
X202953Y198917D02*
X208858D01*
X200098Y219488D02*
Y225394D01*
Y219488D02*
X203051D01*
Y225394D01*
X200098D02*
X203051D01*
X217815Y286417D02*
X220768D01*
X217815D02*
Y292323D01*
X220768D01*
Y286417D02*
Y292323D01*
X235728Y286417D02*
Y292323D01*
X232776D02*
X235728D01*
X232776Y286417D02*
Y292323D01*
Y286417D02*
X235728D01*
X273031Y198524D02*
Y201476D01*
X267126Y198524D02*
X273031D01*
X267126D02*
Y201476D01*
X273031D01*
X260433Y198524D02*
X266339D01*
Y201476D01*
X260433D02*
X266339D01*
X260433Y198524D02*
Y201476D01*
X253740Y246161D02*
Y249114D01*
X259646D01*
Y246161D02*
Y249114D01*
X253740Y246161D02*
X259646D01*
X246654Y222539D02*
X252559D01*
Y225492D01*
X246654D02*
X252559D01*
X246654Y222539D02*
Y225492D01*
X260335Y225394D02*
X263287D01*
X260335D02*
Y231299D01*
X263287D01*
Y225394D02*
Y231299D01*
X218602Y244685D02*
Y250591D01*
Y244685D02*
X221555D01*
Y250591D01*
X218602D02*
X221555D01*
X317421Y347441D02*
X320374D01*
Y341535D02*
Y347441D01*
X317421Y341535D02*
X320374D01*
X317421D02*
Y347441D01*
X155020Y341535D02*
Y347441D01*
X152067D02*
X155020D01*
X152067Y341535D02*
Y347441D01*
Y341535D02*
X155020D01*
X202854Y285630D02*
X205807D01*
Y279724D02*
Y285630D01*
X202854Y279724D02*
X205807D01*
X202854D02*
Y285630D01*
X272304Y291742D02*
X278209D01*
X272304Y288789D02*
Y291742D01*
Y288789D02*
X278209D01*
Y291742D01*
X200197Y204035D02*
Y206988D01*
X194291Y204035D02*
X200197D01*
X194291D02*
Y206988D01*
X200197D01*
X270965Y219094D02*
Y225000D01*
Y219094D02*
X273917D01*
Y225000D01*
X270965D02*
X273917D01*
X207283Y259154D02*
Y262106D01*
X213189D01*
Y259154D02*
Y262106D01*
X207283Y259154D02*
X213189D01*
X200098Y225787D02*
X203051D01*
X200098D02*
Y231693D01*
X203051D01*
Y225787D02*
Y231693D01*
X227264Y247047D02*
X230217D01*
Y241142D02*
Y247047D01*
X227264Y241142D02*
X230217D01*
X227264D02*
Y247047D01*
X239961Y245768D02*
Y248721D01*
X245866D01*
Y245768D02*
Y248721D01*
X239961Y245768D02*
X245866D01*
D84*
X265287Y265983D02*
X264787Y266483D01*
X263787D01*
X263287Y265983D01*
Y263984D01*
X263787Y263484D01*
X264787D01*
X265287Y263984D01*
X266286Y263484D02*
X267286D01*
X266786D01*
Y266483D01*
X266286Y265983D01*
X268786D02*
X269285Y266483D01*
X270285D01*
X270785Y265983D01*
Y265484D01*
X270285Y264984D01*
X270785Y264484D01*
Y263984D01*
X270285Y263484D01*
X269285D01*
X268786Y263984D01*
Y264484D01*
X269285Y264984D01*
X268786Y265484D01*
Y265983D01*
X269285Y264984D02*
X270285D01*
X213386Y233314D02*
Y230815D01*
X213886Y230315D01*
X214885D01*
X215385Y230815D01*
Y233314D01*
X216385Y230315D02*
X217385D01*
X216885D01*
Y233314D01*
X216385Y232814D01*
X221260Y273471D02*
Y270972D01*
X221760Y270472D01*
X222759D01*
X223259Y270972D01*
Y273471D01*
X224259Y272972D02*
X224759Y273471D01*
X225758D01*
X226258Y272972D01*
Y272472D01*
X225758Y271972D01*
X225259D01*
X225758D01*
X226258Y271472D01*
Y270972D01*
X225758Y270472D01*
X224759D01*
X224259Y270972D01*
X203543Y210479D02*
Y208480D01*
X204543Y207480D01*
X205543Y208480D01*
Y210479D01*
X208542D02*
X206542D01*
Y208980D01*
X207542Y209480D01*
X208042D01*
X208542Y208980D01*
Y207980D01*
X208042Y207480D01*
X207042D01*
X206542Y207980D01*
X284798Y199365D02*
X283384Y197951D01*
Y196537D01*
X284798Y196537D01*
X286212Y197951D01*
X285858Y194063D02*
X287979Y196184D01*
X285858Y196184D01*
X287272Y194770D01*
X184100Y195821D02*
X185514Y194408D01*
X186927D01*
X186927Y195821D01*
X185514Y197235D01*
X186574Y197589D02*
Y198295D01*
X187281Y199002D01*
X187988Y199002D01*
X188341Y198649D01*
Y197942D01*
X187988Y197589D01*
X188341Y197942D01*
X189048Y197942D01*
X189401Y197589D01*
X189401Y196882D01*
X188695Y196175D01*
X187988D01*
X282919Y295034D02*
X284332Y293620D01*
X285746D01*
X285746Y295034D01*
X284332Y296448D01*
X288574D02*
X287160Y295034D01*
Y297862D01*
X286807Y298215D01*
X286100Y298215D01*
X285393Y297508D01*
Y296801D01*
X186766Y297790D02*
X185353Y296376D01*
Y294962D01*
X186766Y294962D01*
X188180Y296376D01*
X186766Y293549D02*
X187473Y292842D01*
X187120Y293195D01*
X189240Y295316D01*
X188533D01*
X264567Y208661D02*
Y210661D01*
X265567Y211660D01*
X266566Y210661D01*
Y208661D01*
Y210161D01*
X264567D01*
X267566Y208661D02*
X268566D01*
X268066D01*
Y211660D01*
X267566Y211161D01*
X245866Y237349D02*
Y234850D01*
X246366Y234350D01*
X247366D01*
X247866Y234850D01*
Y237349D01*
X250865Y234350D02*
X248865D01*
X250865Y236350D01*
Y236850D01*
X250365Y237349D01*
X249365D01*
X248865Y236850D01*
X223622Y290007D02*
X225621Y287008D01*
Y290007D02*
X223622Y287008D01*
X228620D02*
X226621D01*
X228620Y289007D01*
Y289507D01*
X228121Y290007D01*
X227121D01*
X226621Y289507D01*
X200000Y269928D02*
Y267429D01*
X200500Y266929D01*
X201500D01*
X201999Y267429D01*
Y269928D01*
X204499Y266929D02*
Y269928D01*
X202999Y268429D01*
X204998D01*
X255118Y291975D02*
X257118Y288976D01*
Y291975D02*
X255118Y288976D01*
X258117D02*
X259117D01*
X258617D01*
Y291975D01*
X258117Y291476D01*
X267747Y247381D02*
X267248Y247881D01*
X266248D01*
X265748Y247381D01*
Y246881D01*
X266248Y246381D01*
X267248D01*
X267747Y245882D01*
Y245382D01*
X267248Y244882D01*
X266248D01*
X265748Y245382D01*
X268747Y244882D02*
X269747D01*
X269247D01*
Y247881D01*
X268747Y247381D01*
X233495Y207527D02*
X232496D01*
X232996D01*
Y205027D01*
X232496Y204528D01*
X231996D01*
X231496Y205027D01*
X234495Y204528D02*
X235495D01*
X234995D01*
Y207527D01*
X234495Y207027D01*
M02*
