M48
;Layer_Color=9474304
;FILE_FORMAT=2:5
INCH,LZ
;TYPE=PLATED
T1F00S00C0.01300
T2F00S00C0.02362
;TYPE=NON_PLATED
T4F00S00C0.02953
%
T01
X0194882Y0202362
X0216929Y0200787
X0220472
X0224016
Y0209449
X0220472
X0216929
X0222047Y0215748
X0225984Y0222835
X0229134Y0229331
X0234646Y0235433
X0236614Y0240945
X0230709Y0248425
X0230315Y0252756
X0225984Y0256299
X0219685Y0254331
X0215354Y0253937
X0208268Y0254331
X0213779Y0260236
X0219685Y0267323
Y027559
X0228346
Y0267323
X0242126Y0267717
X0241339Y0271654
X0247244Y0281102
Y0285039
X0246457Y029252
X024252Y0291339
X023937Y0288583
X0232283Y0287008
X0215748Y0290551
X0214567Y0281102
X0211024
X020748Y0283858
X0204331Y027874
X0208268Y0270472
X0216535Y024685
X0215158Y0232283
X0213386Y0218504
X0210236Y0216142
X0240551Y0220079
Y0226772
X0249213Y0235433
X0246063Y0247244
X024252Y0250394
X025Y0250787
X0252756Y0254724
X025748
Y0259449
X0252756
X0248031Y0258661
X0251969Y0277165
X0257087
X0262205
X0266929Y0281102
Y0286614
Y029252
X0277559Y0287008
X0287205Y0291535
X0272441Y0226378
X026811Y0229134
X0259055Y0226378
X0263386Y0218504
X0261811Y0214961
X0255512Y0209449
X0251969
X0248425
X0243307Y0208661
X0248425Y0200787
X0251969
X0255512
X0276378Y0205118
X0193307Y0292126
X0163386Y0314961
X0309055
T02
X0179134Y0185433
X0175591Y0188976
X0175591Y030315
X0179134Y0306693
X0293307Y0306693
X029685Y030315
X029685Y0188976
X0293307Y0185433
T04
X0262303Y0246063
X027313
M30
