%FSLAX25Y25*%
%MOIN*%
G70*
G01*
G75*
G04 Layer_Color=8388736*
%ADD10R,0.01575X0.01772*%
%ADD11R,0.01772X0.01575*%
%ADD12R,0.08268X0.03543*%
%ADD13R,0.05906X0.01575*%
%ADD14R,0.03150X0.05709*%
%ADD15R,0.01969X0.01378*%
%ADD16R,0.04331X0.02362*%
%ADD17R,0.03740X0.02559*%
%ADD18R,0.03150X0.01575*%
%ADD19R,0.01575X0.03150*%
%ADD20O,0.01575X0.03150*%
%ADD21R,0.08268X0.08268*%
%ADD22R,0.03150X0.01181*%
%ADD23R,0.01181X0.03150*%
%ADD24O,0.01181X0.03150*%
%ADD25R,0.12598X0.12598*%
%ADD26R,0.10630X0.10630*%
%ADD27R,0.03347X0.01102*%
%ADD28R,0.01102X0.03347*%
%ADD29R,0.05315X0.05906*%
%ADD30R,0.02362X0.01969*%
%ADD31R,0.01969X0.02362*%
%ADD32R,0.01181X0.01575*%
G04:AMPARAMS|DCode=33|XSize=59.06mil|YSize=59.06mil|CornerRadius=14.76mil|HoleSize=0mil|Usage=FLASHONLY|Rotation=0.000|XOffset=0mil|YOffset=0mil|HoleType=Round|Shape=RoundedRectangle|*
%AMROUNDEDRECTD33*
21,1,0.05906,0.02953,0,0,0.0*
21,1,0.02953,0.05906,0,0,0.0*
1,1,0.02953,0.01476,-0.01476*
1,1,0.02953,-0.01476,-0.01476*
1,1,0.02953,-0.01476,0.01476*
1,1,0.02953,0.01476,0.01476*
%
%ADD33ROUNDEDRECTD33*%
%ADD34C,0.00800*%
%ADD35C,0.03000*%
%ADD36C,0.01500*%
%ADD37C,0.01000*%
%ADD38C,0.01900*%
%ADD39C,0.01300*%
%ADD40O,0.04331X0.08661*%
%ADD41O,0.04331X0.07087*%
%ADD42C,0.15748*%
%ADD43C,0.05906*%
%ADD44C,0.07000*%
%ADD45C,0.02700*%
%ADD46C,0.02000*%
%ADD47R,0.02375X0.02572*%
%ADD48R,0.02572X0.02375*%
%ADD49R,0.09068X0.04343*%
%ADD50R,0.06706X0.02375*%
%ADD51R,0.03950X0.06509*%
%ADD52R,0.02769X0.02178*%
%ADD53R,0.05131X0.03162*%
%ADD54R,0.04540X0.03359*%
%ADD55R,0.03950X0.02375*%
%ADD56R,0.02375X0.03950*%
%ADD57O,0.02375X0.03950*%
%ADD58R,0.09068X0.09068*%
%ADD59R,0.03950X0.01981*%
%ADD60R,0.01981X0.03950*%
%ADD61O,0.01981X0.03950*%
%ADD62R,0.13398X0.13398*%
%ADD63R,0.11430X0.11430*%
%ADD64R,0.04147X0.01902*%
%ADD65R,0.01902X0.04147*%
%ADD66R,0.06115X0.06706*%
%ADD67R,0.03162X0.02769*%
%ADD68R,0.02769X0.03162*%
%ADD69R,0.01981X0.02375*%
G04:AMPARAMS|DCode=70|XSize=67.06mil|YSize=67.06mil|CornerRadius=18.76mil|HoleSize=0mil|Usage=FLASHONLY|Rotation=0.000|XOffset=0mil|YOffset=0mil|HoleType=Round|Shape=RoundedRectangle|*
%AMROUNDEDRECTD70*
21,1,0.06706,0.02953,0,0,0.0*
21,1,0.02953,0.06706,0,0,0.0*
1,1,0.03753,0.01476,-0.01476*
1,1,0.03753,-0.01476,-0.01476*
1,1,0.03753,-0.01476,0.01476*
1,1,0.03753,0.01476,0.01476*
%
%ADD70ROUNDEDRECTD70*%
%ADD71O,0.05131X0.09461*%
%ADD72O,0.05131X0.07887*%
%ADD73C,0.16548*%
%ADD74C,0.06706*%
%ADD75C,0.07800*%
D47*
X290158Y397441D02*
D03*
Y394685D02*
D03*
X277559Y367126D02*
D03*
Y369882D02*
D03*
X274410Y367126D02*
D03*
Y369882D02*
D03*
X340110Y399035D02*
D03*
Y401791D02*
D03*
X318504Y414370D02*
D03*
Y411614D02*
D03*
X360236Y399803D02*
D03*
Y402559D02*
D03*
D48*
X292717Y386221D02*
D03*
X295472D02*
D03*
X256496Y388189D02*
D03*
X259252D02*
D03*
Y385039D02*
D03*
X256496D02*
D03*
X334842Y431496D02*
D03*
X337598D02*
D03*
X293898Y383071D02*
D03*
X291142D02*
D03*
X320669Y401968D02*
D03*
X323425D02*
D03*
X329724Y401575D02*
D03*
X326969D02*
D03*
X331299Y404724D02*
D03*
X334055D02*
D03*
X336024Y416535D02*
D03*
X338779D02*
D03*
X346488Y374413D02*
D03*
X343732D02*
D03*
X344732Y399913D02*
D03*
X347488D02*
D03*
X335988Y397913D02*
D03*
X333232D02*
D03*
X283268Y397638D02*
D03*
X286024D02*
D03*
X268307Y370079D02*
D03*
X271063D02*
D03*
X359646Y396063D02*
D03*
X356890D02*
D03*
X317520Y417717D02*
D03*
X320276D02*
D03*
D49*
X356693Y409646D02*
D03*
Y416339D02*
D03*
X354610Y382567D02*
D03*
Y389260D02*
D03*
D50*
X368701Y398819D02*
D03*
Y388583D02*
D03*
Y396260D02*
D03*
Y391142D02*
D03*
Y393701D02*
D03*
D51*
X346205Y409717D02*
D03*
D52*
X349748Y407059D02*
D03*
Y409618D02*
D03*
Y412177D02*
D03*
X342661Y407059D02*
D03*
Y409618D02*
D03*
Y412177D02*
D03*
D53*
X329756Y423992D02*
D03*
Y431473D02*
D03*
X318733Y423992D02*
D03*
Y427732D02*
D03*
Y431473D02*
D03*
D54*
X323130Y412598D02*
D03*
X332185Y416339D02*
D03*
Y408858D02*
D03*
D55*
X298579Y404689D02*
D03*
Y407248D02*
D03*
Y409807D02*
D03*
Y412366D02*
D03*
X314327D02*
D03*
Y409807D02*
D03*
Y407248D02*
D03*
Y404689D02*
D03*
D56*
X302614Y416402D02*
D03*
X305173D02*
D03*
X307732D02*
D03*
X310291D02*
D03*
Y400654D02*
D03*
X307732D02*
D03*
X305173D02*
D03*
D57*
X302614D02*
D03*
D58*
X306453Y408528D02*
D03*
D59*
X267842Y376858D02*
D03*
Y378827D02*
D03*
Y380796D02*
D03*
Y382764D02*
D03*
Y384733D02*
D03*
Y386701D02*
D03*
Y388669D02*
D03*
Y390638D02*
D03*
X287527D02*
D03*
Y388669D02*
D03*
Y386701D02*
D03*
Y384733D02*
D03*
Y382764D02*
D03*
Y380796D02*
D03*
Y378827D02*
D03*
Y376858D02*
D03*
D60*
X270795Y393591D02*
D03*
X272764D02*
D03*
X274732D02*
D03*
X276701D02*
D03*
X278669D02*
D03*
X280638D02*
D03*
X282606D02*
D03*
X284575D02*
D03*
Y373906D02*
D03*
X282606D02*
D03*
X280638D02*
D03*
X278669D02*
D03*
X276701D02*
D03*
X274732D02*
D03*
X272764D02*
D03*
D61*
X270795D02*
D03*
D62*
X277685Y383748D02*
D03*
D63*
X338886Y385992D02*
D03*
D64*
X331110Y390913D02*
D03*
Y388945D02*
D03*
Y386976D02*
D03*
Y385008D02*
D03*
Y383039D02*
D03*
Y381071D02*
D03*
X346661D02*
D03*
Y383039D02*
D03*
Y385008D02*
D03*
Y386976D02*
D03*
Y388945D02*
D03*
Y390913D02*
D03*
D65*
X333965Y378217D02*
D03*
X335933D02*
D03*
X337902D02*
D03*
X339870D02*
D03*
X341839D02*
D03*
X343807D02*
D03*
Y393768D02*
D03*
X341839D02*
D03*
X339870D02*
D03*
X337902D02*
D03*
X335933D02*
D03*
X333965D02*
D03*
D66*
X360343Y375413D02*
D03*
X351878D02*
D03*
D67*
X311811Y422441D02*
D03*
Y426378D02*
D03*
X335039Y427953D02*
D03*
Y424016D02*
D03*
X338090Y408858D02*
D03*
Y412795D02*
D03*
X362205Y383071D02*
D03*
Y387008D02*
D03*
D68*
X345693Y416677D02*
D03*
X349630D02*
D03*
X351079Y396913D02*
D03*
X347142D02*
D03*
D69*
X331890Y370866D02*
D03*
X335827D02*
D03*
D70*
X285827Y367323D02*
D03*
X293701D02*
D03*
D71*
X376181Y393701D02*
D03*
D72*
X367717Y382677D02*
D03*
Y404724D02*
D03*
D73*
X346457Y426772D02*
D03*
X385827Y372835D02*
D03*
X255906D02*
D03*
D74*
X318701Y393110D02*
D03*
Y367520D02*
D03*
X300984Y393110D02*
D03*
Y367520D02*
D03*
X322047Y380315D02*
D03*
X297638D02*
D03*
D75*
X353819Y367717D02*
D03*
X343819D02*
D03*
X312000Y430000D02*
D03*
X302000D02*
D03*
M02*
