%FSLAX25Y25*%
%MOIN*%
G70*
G01*
G75*
G04 Layer_Physical_Order=1*
G04 Layer_Color=255*
%ADD10R,0.01575X0.01772*%
%ADD11R,0.01772X0.01575*%
%ADD12R,0.08268X0.03543*%
%ADD13R,0.05906X0.01575*%
%ADD14R,0.03150X0.05709*%
%ADD15R,0.01969X0.01378*%
%ADD16R,0.04331X0.02362*%
%ADD17R,0.03740X0.02559*%
%ADD18R,0.03150X0.01575*%
%ADD19R,0.01575X0.03150*%
%ADD20O,0.01575X0.03150*%
%ADD21R,0.08268X0.08268*%
%ADD22R,0.03150X0.01181*%
%ADD23R,0.01181X0.03150*%
%ADD24O,0.01181X0.03150*%
%ADD25R,0.12598X0.12598*%
%ADD26R,0.10630X0.10630*%
%ADD27R,0.03347X0.01102*%
%ADD28R,0.01102X0.03347*%
%ADD29R,0.05315X0.05906*%
%ADD30R,0.02362X0.01969*%
%ADD31R,0.01969X0.02362*%
%ADD32R,0.01181X0.01575*%
G04:AMPARAMS|DCode=33|XSize=59.06mil|YSize=59.06mil|CornerRadius=14.76mil|HoleSize=0mil|Usage=FLASHONLY|Rotation=0.000|XOffset=0mil|YOffset=0mil|HoleType=Round|Shape=RoundedRectangle|*
%AMROUNDEDRECTD33*
21,1,0.05906,0.02953,0,0,0.0*
21,1,0.02953,0.05906,0,0,0.0*
1,1,0.02953,0.01476,-0.01476*
1,1,0.02953,-0.01476,-0.01476*
1,1,0.02953,-0.01476,0.01476*
1,1,0.02953,0.01476,0.01476*
%
%ADD33ROUNDEDRECTD33*%
%ADD34C,0.00800*%
%ADD35C,0.03000*%
%ADD36C,0.01500*%
%ADD37C,0.01000*%
%ADD38C,0.01900*%
%ADD39C,0.01300*%
%ADD40O,0.04331X0.08661*%
%ADD41O,0.04331X0.07087*%
%ADD42C,0.15748*%
%ADD43C,0.05906*%
%ADD44C,0.07000*%
%ADD45C,0.02700*%
G36*
X343602Y408957D02*
X341831Y408957D01*
X340945Y408071D01*
X338681D01*
X334941Y404331D01*
X332972D01*
Y406299D01*
X330413D01*
X330413Y409883D01*
X330767Y410236D01*
X343602D01*
Y408957D01*
D02*
G37*
G36*
X391422Y396524D02*
X391432Y396517D01*
X392552Y395206D01*
X393460Y393725D01*
X394124Y392121D01*
X394530Y390432D01*
X394665Y388713D01*
X394663Y388701D01*
Y376736D01*
X393692Y376493D01*
X393063Y377670D01*
X391981Y378989D01*
X390662Y380071D01*
X389157Y380875D01*
X387525Y381371D01*
X385827Y381538D01*
X384129Y381371D01*
X382496Y380875D01*
X380992Y380071D01*
X379673Y378989D01*
X378590Y377670D01*
X377786Y376165D01*
X377291Y374533D01*
X377123Y372835D01*
X377291Y371137D01*
X377786Y369504D01*
X378590Y367999D01*
X379673Y366681D01*
X380992Y365598D01*
X382169Y364969D01*
X381926Y363999D01*
X358268D01*
Y384154D01*
X360236D01*
Y382003D01*
X360191Y381936D01*
X360026Y381102D01*
X360191Y380268D01*
X360664Y379561D01*
X361371Y379089D01*
X362205Y378923D01*
X363039Y379089D01*
X363746Y379561D01*
X364079Y380060D01*
X365074Y379962D01*
X365137Y379810D01*
X365611Y379193D01*
X366227Y378720D01*
X366946Y378422D01*
X367717Y378321D01*
X368487Y378422D01*
X369206Y378720D01*
X369823Y379193D01*
X370296Y379810D01*
X370593Y380528D01*
X370695Y381299D01*
Y384055D01*
X370593Y384826D01*
X370492Y385072D01*
X371373Y385543D01*
X371687Y385073D01*
X372394Y384601D01*
X373228Y384435D01*
X374062Y384601D01*
X374769Y385073D01*
X374922Y385302D01*
X377165D01*
X377668Y385402D01*
X378094Y385686D01*
X380849Y388442D01*
X381134Y388868D01*
X381234Y389370D01*
Y399213D01*
X381134Y399715D01*
X380849Y400141D01*
X369038Y411952D01*
X368613Y412236D01*
X368110Y412336D01*
X366654D01*
X366502Y412565D01*
X365795Y413037D01*
X364961Y413203D01*
X364127Y413037D01*
X363420Y412565D01*
X363162Y412179D01*
X362205Y412469D01*
Y413681D01*
X352756D01*
X350689Y411614D01*
X348721D01*
Y417717D01*
X370230D01*
X391422Y396524D01*
D02*
G37*
G36*
X305512Y423228D02*
X313386Y423228D01*
X315256Y425098D01*
X320866D01*
Y422024D01*
Y420764D01*
X320853Y420698D01*
X320787Y420685D01*
X319174D01*
X319096Y420669D01*
X319017D01*
X318951Y420656D01*
X318951D01*
X318878Y420626D01*
X318866Y420624D01*
X318857Y420617D01*
X318802Y420594D01*
X318661Y420536D01*
X318661Y420536D01*
D01*
X318440Y420315D01*
X318382Y420174D01*
X318359Y420120D01*
X318353Y420110D01*
X318351Y420098D01*
X318320Y420025D01*
Y420025D01*
D01*
X318307Y419959D01*
Y419880D01*
X318292Y419803D01*
Y419291D01*
X316845D01*
X316188Y419730D01*
X315354Y419896D01*
X314965Y419818D01*
X314636Y420147D01*
X314243Y420410D01*
X313779Y420502D01*
X313779Y420502D01*
X308268D01*
X307804Y420410D01*
X307412Y420147D01*
X307412Y420147D01*
X306876Y419612D01*
X306732Y419396D01*
X306232D01*
X306029Y419699D01*
X306029Y419699D01*
X305580Y420147D01*
X305188Y420410D01*
X304724Y420502D01*
X304724Y420502D01*
X298524D01*
Y433563D01*
X305512D01*
Y423228D01*
D02*
G37*
G36*
X347736Y406061D02*
X344433D01*
Y408142D01*
Y411095D01*
X340890D01*
Y411039D01*
X330767D01*
X330767Y411039D01*
X330460Y410978D01*
X330381Y410925D01*
X329528D01*
Y406791D01*
X329611D01*
Y406299D01*
X329672Y405992D01*
X329846Y405731D01*
X330106Y405557D01*
X330413Y405496D01*
X332170D01*
Y404331D01*
X332231Y404024D01*
X332237Y404014D01*
X332001Y403573D01*
X330512D01*
X330048Y403481D01*
X329656Y403218D01*
X329656Y403218D01*
X329587Y403150D01*
X328179D01*
Y403740D01*
X328179Y403740D01*
X328087Y404204D01*
X327825Y404596D01*
X327824Y404596D01*
X322116Y410305D01*
X321723Y410567D01*
X321260Y410660D01*
X321260Y410660D01*
X320079D01*
Y413287D01*
X319094D01*
Y416142D01*
X319193D01*
Y419291D01*
X319094D01*
Y419803D01*
Y419803D01*
X319101Y419813D01*
X319119Y419857D01*
X319164Y419875D01*
X319174Y419882D01*
X319253D01*
X320787D01*
X320865Y419897D01*
X320944D01*
X321010Y419910D01*
X321010D01*
X321083Y419941D01*
X321094Y419943D01*
X321104Y419950D01*
X321159Y419972D01*
X321299Y420030D01*
X321299Y420030D01*
D01*
X321521Y420252D01*
X321579Y420392D01*
X321601Y420447D01*
X321608Y420457D01*
X321610Y420468D01*
X321640Y420541D01*
X321640Y420541D01*
X321640Y420541D01*
X321640Y420541D01*
X321640Y420541D01*
Y420541D01*
X321654Y420607D01*
Y420644D01*
X321669Y420764D01*
X321669Y420764D01*
X321669D01*
Y422024D01*
X321685D01*
Y425961D01*
X319094D01*
Y426083D01*
X308563D01*
Y433563D01*
X315780D01*
Y433441D01*
X315780D01*
Y429504D01*
X320788D01*
X320820Y429483D01*
X321654Y429317D01*
X322487Y429483D01*
X323195Y429955D01*
X323667Y430662D01*
X323833Y431496D01*
X323667Y432330D01*
X323195Y433037D01*
X322487Y433509D01*
X322487Y433509D01*
X322487D01*
Y433509D01*
X322493Y433563D01*
X326450D01*
X326803Y433209D01*
Y429504D01*
X332709D01*
Y429921D01*
X333169D01*
Y429921D01*
X336516D01*
Y433071D01*
X336516D01*
Y433209D01*
X336869Y433563D01*
X347736D01*
Y406061D01*
D02*
G37*
%LPC*%
G36*
X332709Y425961D02*
X326803D01*
Y422024D01*
X331222D01*
X331843Y421609D01*
X332677Y421443D01*
X333511Y421609D01*
X334218Y422081D01*
X334327Y422244D01*
X337008D01*
Y425787D01*
X333071D01*
Y425787D01*
X333071D01*
X332709Y425795D01*
Y425961D01*
D02*
G37*
G36*
X334842Y418405D02*
X329528D01*
Y417709D01*
X328865D01*
X328787Y417761D01*
X327953Y417927D01*
X327119Y417761D01*
X326412Y417289D01*
X325939Y416582D01*
X325774Y415748D01*
X325939Y414914D01*
X326412Y414207D01*
X327119Y413735D01*
X327953Y413569D01*
X328787Y413735D01*
X329494Y414207D01*
X329537Y414272D01*
X334842D01*
Y414961D01*
X337697D01*
Y418110D01*
X334842D01*
Y418405D01*
D02*
G37*
%LPD*%
D10*
X290158Y397441D02*
D03*
Y394685D02*
D03*
X277559Y367126D02*
D03*
Y369882D02*
D03*
X274410Y367126D02*
D03*
Y369882D02*
D03*
X340110Y399035D02*
D03*
Y401791D02*
D03*
X318504Y414370D02*
D03*
Y411614D02*
D03*
X360236Y399803D02*
D03*
Y402559D02*
D03*
D11*
X292717Y386221D02*
D03*
X295472D02*
D03*
X256496Y388189D02*
D03*
X259252D02*
D03*
Y385039D02*
D03*
X256496D02*
D03*
X334842Y431496D02*
D03*
X337598D02*
D03*
X293898Y383071D02*
D03*
X291142D02*
D03*
X320669Y401968D02*
D03*
X323425D02*
D03*
X329724Y401575D02*
D03*
X326969D02*
D03*
X331299Y404724D02*
D03*
X334055D02*
D03*
X336024Y416535D02*
D03*
X338779D02*
D03*
X346488Y374413D02*
D03*
X343732D02*
D03*
X344732Y399913D02*
D03*
X347488D02*
D03*
X335988Y397913D02*
D03*
X333232D02*
D03*
X283268Y397638D02*
D03*
X286024D02*
D03*
X268307Y370079D02*
D03*
X271063D02*
D03*
X359646Y396063D02*
D03*
X356890D02*
D03*
X317520Y417717D02*
D03*
X320276D02*
D03*
D12*
X356693Y409646D02*
D03*
Y416339D02*
D03*
X354610Y382567D02*
D03*
Y389260D02*
D03*
D13*
X368701Y398819D02*
D03*
Y388583D02*
D03*
Y396260D02*
D03*
Y391142D02*
D03*
Y393701D02*
D03*
D14*
X346205Y409717D02*
D03*
D15*
X349748Y407059D02*
D03*
Y409618D02*
D03*
Y412177D02*
D03*
X342661Y407059D02*
D03*
Y409618D02*
D03*
Y412177D02*
D03*
D16*
X329756Y423992D02*
D03*
Y431473D02*
D03*
X318733Y423992D02*
D03*
Y427732D02*
D03*
Y431473D02*
D03*
D17*
X323130Y412598D02*
D03*
X332185Y416339D02*
D03*
Y408858D02*
D03*
D18*
X298579Y404689D02*
D03*
Y407248D02*
D03*
Y409807D02*
D03*
Y412366D02*
D03*
X314327D02*
D03*
Y409807D02*
D03*
Y407248D02*
D03*
Y404689D02*
D03*
D19*
X302614Y416402D02*
D03*
X305173D02*
D03*
X307732D02*
D03*
X310291D02*
D03*
Y400654D02*
D03*
X307732D02*
D03*
X305173D02*
D03*
D20*
X302614D02*
D03*
D21*
X306453Y408528D02*
D03*
D22*
X267842Y376858D02*
D03*
Y378827D02*
D03*
Y380796D02*
D03*
Y382764D02*
D03*
Y384733D02*
D03*
Y386701D02*
D03*
Y388669D02*
D03*
Y390638D02*
D03*
X287527D02*
D03*
Y388669D02*
D03*
Y386701D02*
D03*
Y384733D02*
D03*
Y382764D02*
D03*
Y380796D02*
D03*
Y378827D02*
D03*
Y376858D02*
D03*
D23*
X270795Y393591D02*
D03*
X272764D02*
D03*
X274732D02*
D03*
X276701D02*
D03*
X278669D02*
D03*
X280638D02*
D03*
X282606D02*
D03*
X284575D02*
D03*
Y373906D02*
D03*
X282606D02*
D03*
X280638D02*
D03*
X278669D02*
D03*
X276701D02*
D03*
X274732D02*
D03*
X272764D02*
D03*
D24*
X270795D02*
D03*
D25*
X277685Y383748D02*
D03*
D26*
X338886Y385992D02*
D03*
D27*
X331110Y390913D02*
D03*
Y388945D02*
D03*
Y386976D02*
D03*
Y385008D02*
D03*
Y383039D02*
D03*
Y381071D02*
D03*
X346661D02*
D03*
Y383039D02*
D03*
Y385008D02*
D03*
Y386976D02*
D03*
Y388945D02*
D03*
Y390913D02*
D03*
D28*
X333965Y378217D02*
D03*
X335933D02*
D03*
X337902D02*
D03*
X339870D02*
D03*
X341839D02*
D03*
X343807D02*
D03*
Y393768D02*
D03*
X341839D02*
D03*
X339870D02*
D03*
X337902D02*
D03*
X335933D02*
D03*
X333965D02*
D03*
D29*
X360343Y375413D02*
D03*
X351878D02*
D03*
D30*
X311811Y422441D02*
D03*
Y426378D02*
D03*
X335039Y427953D02*
D03*
Y424016D02*
D03*
X338090Y408858D02*
D03*
Y412795D02*
D03*
X362205Y383071D02*
D03*
Y387008D02*
D03*
D31*
X345693Y416677D02*
D03*
X349630D02*
D03*
X351079Y396913D02*
D03*
X347142D02*
D03*
D32*
X331890Y370866D02*
D03*
X335827D02*
D03*
D33*
X285827Y367323D02*
D03*
X293701D02*
D03*
D34*
X282606Y370544D02*
X285827Y367323D01*
X282606Y370544D02*
Y373906D01*
X287118D02*
X293701Y367323D01*
X284575Y373906D02*
X287118D01*
X296654Y371850D02*
X300000Y368504D01*
X293504Y371850D02*
X296654D01*
X288496Y376858D02*
X293504Y371850D01*
X268307Y370079D02*
Y376858D01*
X262992Y384733D02*
X267842D01*
X294488Y393307D02*
Y397244D01*
X262205Y389370D02*
X264874Y386701D01*
X267842D01*
X264961Y395276D02*
X288976Y419291D01*
X264961Y389370D02*
Y395276D01*
Y389370D02*
X265661Y388669D01*
X267842D01*
X259252Y385039D02*
Y388189D01*
X259836Y383865D02*
Y384639D01*
Y383865D02*
X262905Y380796D01*
X267842D01*
X288976Y419291D02*
X292913D01*
X256742Y388189D02*
Y389419D01*
X289764Y422441D01*
X311811D01*
X286221Y414173D02*
X292126D01*
X268504Y396457D02*
X286221Y414173D01*
X268504Y390551D02*
Y396457D01*
X329780Y431496D02*
X334842D01*
X362598Y396063D02*
Y401575D01*
X361614Y402559D02*
X362598Y401575D01*
X359842Y402559D02*
X361614D01*
X362598Y396063D02*
X364961Y393701D01*
X358858Y403543D02*
X359842Y402559D01*
X357480Y392913D02*
X362992D01*
X355906Y394488D02*
X357480Y392913D01*
X355906Y394488D02*
Y400000D01*
X362992Y392913D02*
X364764Y391142D01*
X351055Y404851D02*
X355906Y400000D01*
X364764Y391142D02*
X368701D01*
X356299Y403543D02*
X358858D01*
X339103Y404851D02*
X351055D01*
X336614Y402362D02*
X339103Y404851D01*
X330512Y402362D02*
X336614D01*
X329724Y401575D02*
X330512Y402362D01*
X326969Y401575D02*
Y403740D01*
X321260Y409449D02*
X326969Y403740D01*
X314685Y409449D02*
X321260D01*
X326969Y393110D02*
Y401575D01*
X320669Y401968D02*
Y405709D01*
X319291Y401968D02*
X320669D01*
X352362Y406299D02*
X361024D01*
X351602Y407059D02*
X352362Y406299D01*
X349748Y407059D02*
X351602D01*
X322441Y388583D02*
X326969Y393110D01*
X290158Y390957D02*
Y394685D01*
Y390957D02*
X294476D01*
X288595D02*
X290158D01*
X288276Y390638D02*
X288595Y390957D01*
X287527Y390638D02*
X288276D01*
X293701Y389370D02*
X298425Y384646D01*
X290551Y389370D02*
X293701D01*
X289851Y388669D02*
X290551Y389370D01*
X287527Y388669D02*
X289851D01*
X328378Y381071D02*
X331110D01*
X324803Y384646D02*
X328378Y381071D01*
X298425Y384646D02*
X324803D01*
X281144Y400000D02*
X297244D01*
X276701Y395556D02*
X281144Y400000D01*
X276701Y393591D02*
Y395556D01*
X286147Y407248D02*
X298579D01*
X274732Y395833D02*
X286147Y407248D01*
X274732Y393591D02*
Y395833D01*
X286461Y409807D02*
X298579D01*
X272764Y396109D02*
X286461Y409807D01*
X272764Y393591D02*
Y396109D01*
X285827Y411417D02*
X292126D01*
X270795Y396386D02*
X285827Y411417D01*
X270795Y393591D02*
Y396386D01*
X361024Y406299D02*
X362205Y407480D01*
X357283Y415748D02*
X361417D01*
X362205Y414961D01*
Y407480D02*
Y414961D01*
X364961Y393701D02*
X368701D01*
X328772Y383039D02*
X331110D01*
X325197Y386614D02*
X328772Y383039D01*
X305173Y399268D02*
Y400654D01*
X303550Y397644D02*
X305173Y399268D01*
X299600Y397644D02*
X303550D01*
X297110Y416402D02*
X302614D01*
X292126Y411417D02*
X297110Y416402D01*
X313779Y419291D02*
X315354Y417717D01*
X307732Y416402D02*
Y418756D01*
X308268Y419291D01*
X313779D01*
X305173Y416402D02*
Y418843D01*
X304724Y419291D02*
X305173Y418843D01*
X297244Y419291D02*
X304724D01*
X292126Y414173D02*
X297244Y419291D01*
X314327Y409807D02*
X314685Y409449D01*
X313386Y396063D02*
X319291Y401968D01*
X299213Y388583D02*
X322441D01*
X314327Y407248D02*
X319130D01*
X320669Y405709D01*
X335933Y375697D02*
Y378217D01*
X335039Y374803D02*
X335933Y375697D01*
X303543Y374803D02*
X335039D01*
X304331Y380315D02*
X322047D01*
X299606Y375590D02*
X304331Y380315D01*
X295669Y375590D02*
X299606D01*
X290464Y380796D02*
X295669Y375590D01*
X287527Y378827D02*
X289677D01*
X287527Y380796D02*
X290464D01*
X287527Y382764D02*
X290835D01*
X287527Y376858D02*
X288496D01*
X289677Y378827D02*
X294882Y373622D01*
X302362D01*
X303543Y374803D01*
X294476Y390957D02*
X298819Y386614D01*
X325197D01*
X297244Y400000D02*
X299600Y397644D01*
X306693Y396063D02*
X313386D01*
X294488Y393307D02*
X299213Y388583D01*
D35*
X338886Y385992D02*
X346661D01*
X342823Y367717D02*
Y378217D01*
X346661Y382055D02*
X355968D01*
X360343Y375413D02*
Y377681D01*
X355968Y382055D02*
X360343Y377681D01*
X355457Y382567D02*
X355968Y382055D01*
X353957Y389913D02*
X354610Y389260D01*
X346661Y389913D02*
X353957D01*
X341850Y365748D02*
X343819Y367717D01*
X320472Y365748D02*
X341850D01*
X318701Y367520D02*
X320472Y365748D01*
D36*
X346488Y374413D02*
X350878D01*
X362205Y388583D02*
X368701D01*
X351079Y395173D02*
Y396913D01*
X341232Y402913D02*
X349843D01*
X340110Y401791D02*
X341232Y402913D01*
X349843D02*
X353957Y398799D01*
X310291Y416402D02*
X314327Y412366D01*
X328346Y416142D02*
X331988D01*
X332185Y416339D01*
X351079Y396913D02*
Y398158D01*
X349323Y399913D02*
X351079Y398158D01*
X302114Y401154D02*
X302614Y400654D01*
X300114Y401154D02*
X302114D01*
X371260Y388583D02*
X373228Y386614D01*
X371260Y398819D02*
X373228Y400787D01*
X354610Y382567D02*
X355508Y383465D01*
X332382Y416535D02*
X336024D01*
X315354Y417717D02*
X317520D01*
X347488Y399913D02*
X349323D01*
X353957Y389913D02*
Y398799D01*
D37*
X307732Y400654D02*
Y407248D01*
X270795Y370079D02*
Y373906D01*
X253543Y385039D02*
X256496D01*
X276701Y369882D02*
Y373906D01*
X274410Y369882D02*
X276701D01*
X277559D01*
X286024Y397638D02*
X289961D01*
X373228Y386614D02*
X377165D01*
X379921Y389370D01*
Y399213D01*
X368110Y411024D02*
X379921Y399213D01*
X364961Y411024D02*
X368110D01*
X332110Y400413D02*
X335110D01*
X330610Y398913D02*
X332110Y400413D01*
X335110D02*
X335988Y399535D01*
X338533Y407923D02*
X339398Y407059D01*
X284575Y394023D02*
X286614Y396063D01*
X284575Y393591D02*
Y394023D01*
X282606Y396976D02*
X283268Y397638D01*
X282606Y393591D02*
Y396976D01*
X302614Y412366D02*
X306453Y408528D01*
X298579Y412366D02*
X302614D01*
X314488Y412205D02*
X316535D01*
X317126Y411614D01*
X318504D01*
X346661Y381071D02*
Y382055D01*
Y383039D01*
Y388945D02*
Y389913D01*
Y390913D01*
Y385008D02*
Y385992D01*
Y386976D01*
X339870Y393768D02*
Y399035D01*
X341839Y393768D02*
Y397020D01*
X344732Y399913D01*
X335933Y393768D02*
Y397858D01*
X341839Y378217D02*
X342823D01*
X343807D01*
X333232Y394500D02*
Y397913D01*
Y394500D02*
X333965Y393768D01*
X331110Y385008D02*
Y386976D01*
Y388945D01*
Y390913D01*
X335933Y393768D02*
X337902D01*
X335988Y397913D02*
Y399535D01*
X331059Y390965D02*
X331110Y390913D01*
X330610Y390965D02*
Y398913D01*
X339398Y407059D02*
X342661D01*
X282606Y388669D02*
Y393591D01*
X270795Y373906D02*
Y376858D01*
X277685Y383748D02*
X282606Y388669D01*
X270795Y376858D02*
X277685Y383748D01*
X305906Y372441D02*
X323327D01*
X300984Y367520D02*
X305906Y372441D01*
X296260Y378937D02*
X297638Y380315D01*
X293898Y383071D02*
X296654Y380315D01*
X271063Y368307D02*
Y370079D01*
Y368307D02*
X272244Y367126D01*
X274410D01*
X277756Y366929D02*
X280315D01*
X323327Y372441D02*
X324902Y370866D01*
X331890D01*
D38*
X344376Y394148D02*
X347142Y396913D01*
X345504Y395047D02*
X346850Y393701D01*
D39*
X349748Y409618D02*
X355874D01*
D40*
X376181Y393701D02*
D03*
D41*
X367717Y382677D02*
D03*
Y404724D02*
D03*
D42*
X346457Y426772D02*
D03*
X385827Y372835D02*
D03*
X255906D02*
D03*
D43*
X318701Y393110D02*
D03*
Y367520D02*
D03*
X300984Y393110D02*
D03*
Y367520D02*
D03*
X322047Y380315D02*
D03*
X297638D02*
D03*
D44*
X353819Y367717D02*
D03*
X343819D02*
D03*
X312000Y430000D02*
D03*
X302000D02*
D03*
D45*
X338886Y385992D02*
D03*
X342232Y382646D02*
D03*
Y385992D02*
D03*
Y389339D02*
D03*
X335539Y382646D02*
D03*
X338886D02*
D03*
X335539Y385992D02*
D03*
Y389339D02*
D03*
X338886D02*
D03*
X253543Y385039D02*
D03*
X337008Y399606D02*
D03*
X309055Y405905D02*
D03*
X281102Y380315D02*
D03*
X262992Y384646D02*
D03*
X292913Y419291D02*
D03*
X364961Y411024D02*
D03*
X335433Y408760D02*
D03*
X332677Y423622D02*
D03*
X321654Y431496D02*
D03*
X359842Y398031D02*
D03*
X356299Y403543D02*
D03*
X291339Y386221D02*
D03*
X327953Y415748D02*
D03*
X287008Y396063D02*
D03*
X350787Y394882D02*
D03*
X353150Y376772D02*
D03*
X350787Y375197D02*
D03*
X346850Y393701D02*
D03*
X312598Y414961D02*
D03*
X299614Y401653D02*
D03*
X362205Y388976D02*
D03*
X373228Y386614D02*
D03*
X365354Y399213D02*
D03*
X373228Y400787D02*
D03*
X337303Y370866D02*
D03*
X362205Y381102D02*
D03*
X315354Y417717D02*
D03*
X323228Y399213D02*
D03*
X267717Y373622D02*
D03*
X280315Y366929D02*
D03*
X306693Y396063D02*
D03*
X294488Y397244D02*
D03*
X262205Y390551D02*
D03*
X359055Y374016D02*
D03*
X346063Y408661D02*
D03*
Y412992D02*
D03*
X340945Y414961D02*
D03*
M02*
